<?xml version="1.0" encoding="utf-8"?>
<!-- Generator: Adobe Illustrator 22.1.0, SVG Export Plug-In . SVG Version: 6.00 Build 0)  -->
<svg version="1.1" id="Layer_1" xmlns="http://www.w3.org/2000/svg" xmlns:xlink="http://www.w3.org/1999/xlink" x="0px" y="0px"
	 viewBox="0 0 500 500" style="enable-background:new 0 0 500 500;" xml:space="preserve">
<style type="text/css">
	.st0{fill-rule:evenodd;clip-rule:evenodd;fill:#FFFFFF;stroke:#FFFFFF;stroke-miterlimit:10;}
	.st1{fill-rule:evenodd;clip-rule:evenodd;fill:#FFFFFF;}
	.st2{fill-rule:evenodd;clip-rule:evenodd;fill:#FFC223;}
</style>
<g>
	<path class="st0" d="M250.1,447.9c-41.1-1-75.4-15.2-102.7-42.5c-27.3-27.3-41.5-61.5-42.5-102.7v-0.1c0.4-27,7.1-51.5,20-73.4
		c1.8-3.1,6.3-3,8.1,0.1l34.5,60.3c8.6,14.2,16.6,32.5,24.1,54.8c7.3,21.6,12.4,48.3,15.1,80.1c0.2,1.9,1.4,3.5,3.2,4.1
		c12.7,4.1,26.1,6.1,40.2,6.2c13.8-0.1,26.9-2.1,39.4-6.1c1.8-0.6,3-2.2,3.2-4.1c3-35.1,8.6-63.8,16.6-86.2
		c8.3-22.9,17.1-41.5,26.5-55.8c0-0.1,0.1-0.1,0.1-0.2l30.5-54.2c1.8-3.1,6.3-3.2,8.1-0.1c13.4,22.3,20.2,47.1,20.6,74.5v0.1
		c-1,41.1-15.2,75.4-42.5,102.7C325.3,432.7,291.1,446.9,250.1,447.9 M319.9,149.6c-5.1-17.9-17.8-27.6-38.3-29.1
		c-0.2,0-0.3,0-0.5,0c-0.4,0-1.2,0-2.4,0c-2.5,0.1-4.6,2.1-4.6,4.7v6.6c0,2.6-2.1,4.7-4.7,4.7h-14c-2.6,0-4.7,2.1-4.7,4.7v1.6
		c0,2.6,2.1,4.7,4.7,4.7h14c2.6,0,4.7,2.1,4.7,4.7v10c0,2.6-2.1,4.7-4.7,4.7h-14c-2.6,0-4.7,2.1-4.7,4.7v1.6c0,2.6,2.1,4.7,4.7,4.7
		h14c2.6,0,4.7,2.1,4.7,4.7v6.6c0,2.5,2,4.6,4.6,4.7c1.7,0,2.6,0.1,2.6,0.1c14.5-0.7,25.4-6.1,32.8-16.4c1.4-1.9,3.9-2.5,6-1.4
		c10.2,5.6,19.5,12.3,27.9,20c1.7,1.6,2,4.3,0.6,6.2l-53.9,73.9c-13.1,17.5-28.3,26.4-45.6,26.7c-17.3-0.3-32.5-9.2-45.6-26.7
		l-53.1-72.8c-1.4-1.9-1.2-4.5,0.5-6.1c8.7-8.1,18.4-15.2,29-21.1c2-1.1,4.6-0.5,6,1.4c7.2,10.1,17.9,15.6,32.2,16.3l1,0
		c0.4,0,1.1-0.1,2.1-0.1c2.5,0,4.6-2.1,4.6-4.7v-63.5c0-2.5-2-4.6-4.6-4.7c-1.1,0-1.9,0-2.2,0c-0.2,0-0.3,0-0.5,0
		c-19.7,1.4-32.3,10.5-37.8,27.2c-0.4,1.2-1.3,2.2-2.4,2.8c-29.5,14.2-52.9,34.6-70,61.1c-17.5,27.1-26.4,57.5-26.7,91.2
		c1.2,47.7,17.7,87.4,49.4,119.1c31.7,31.7,71.4,48.2,119.1,49.4c47.7-1.2,87.3-17.7,118.9-49.4c31.7-31.7,48.2-71.4,49.4-119.1
		c-0.3-33.7-9.2-64-26.7-91.2C374.2,184.4,350.3,163.8,319.9,149.6"/>
	<path class="st1" d="M215.4,251.5c0.2,9.8,3.6,18,10.1,24.6c6.5,6.5,14.7,9.9,24.4,10.1c9.8-0.2,18-3.6,24.6-10.1
		c6.6-6.5,9.9-14.7,10.1-24.6c-0.2-9.7-3.6-17.9-10.1-24.4c-6.5-6.5-14.7-9.9-24.6-10.1c-9.7,0.2-17.9,3.6-24.4,10.1
		C219,233.6,215.6,241.7,215.4,251.5"/>
	<polyline class="st2" points="358.9,28.8 291.7,68.2 303.9,74 265.6,112.4 332.8,73.1 320.5,67.1 358.9,28.8 	"/>
	<polyline class="st2" points="210.3,68.2 143.1,28.8 181.5,67.1 169.2,73.1 236.4,112.4 198,74 210.3,68.2 	"/>
</g>
</svg>
