<?xml version="1.0" encoding="utf-8"?>
<!-- Generator: Adobe Illustrator 22.1.0, SVG Export Plug-In . SVG Version: 6.00 Build 0)  -->
<svg version="1.1" id="Layer_1" xmlns="http://www.w3.org/2000/svg" xmlns:xlink="http://www.w3.org/1999/xlink" x="0px" y="0px"
	 viewBox="0 0 500 200" style="enable-background:new 0 0 500 200;" xml:space="preserve">
<g>
	<path d="M63.2,105.8c0-1-0.1-2-0.3-2.8c-0.2-0.8-0.5-1.6-0.9-2.3c-0.4-0.7-0.8-1.3-1.4-1.8c-0.5-0.5-1.1-0.9-1.7-1.3
		c0.7-1,1.2-2,1.5-3c0.3-1.1,0.5-2.1,0.5-3v-1c0-1.2-0.2-2.2-0.6-3c-0.4-0.8-1-1.5-1.6-2c-0.6-0.5-1.3-0.9-2.1-1.1
		c-0.7-0.2-1.4-0.3-2.1-0.3H37c-0.4,0-0.7,0.1-1,0.2c-0.3,0.1-0.6,0.3-0.8,0.6c-0.2,0.2-0.4,0.5-0.6,0.8c-0.1,0.3-0.2,0.7-0.2,1
		v23.6c0,0.4,0.1,0.7,0.2,1c0.1,0.3,0.3,0.6,0.6,0.8c0.2,0.2,0.5,0.4,0.8,0.6c0.3,0.1,0.7,0.2,1,0.2h19.9c1.2,0,2.2-0.2,3-0.6
		c0.8-0.4,1.5-0.9,2-1.6c0.5-0.6,0.9-1.3,1.1-2.1c0.2-0.7,0.3-1.4,0.3-2.1V105.8L63.2,105.8z M58,106.7c0,0.3,0,0.5-0.1,0.7
		s-0.2,0.3-0.3,0.3c-0.1,0.1-0.2,0.1-0.4,0.1c-0.1,0-0.2,0-0.3,0H39.6V89.5h14.9c0.7,0,1.1,0.4,1.1,1.1v1c0,0.7-0.1,1.3-0.3,1.8
		c-0.2,0.5-0.5,1-0.9,1.4c-0.4,0.4-0.9,0.7-1.4,0.9c-0.6,0.2-1.2,0.3-1.9,0.3h-9.4v5.3h11.8c0.7,0,1.3,0.1,1.9,0.3
		c0.6,0.2,1,0.5,1.4,0.9c0.4,0.4,0.7,0.9,0.9,1.4c0.2,0.5,0.3,1.2,0.3,1.8V106.7L58,106.7z M76.7,107.9h-2.3c-0.6,0-1.1-0.2-1.5-0.6
		c-0.4-0.4-0.6-0.9-0.6-1.5V82.1h-5.2v23.6c0,1.4,0.2,2.5,0.7,3.4c0.5,0.9,1.1,1.7,1.8,2.3c0.7,0.6,1.5,1,2.4,1.3
		c0.9,0.3,1.7,0.4,2.4,0.4h2.3V107.9L76.7,107.9z M85.4,82.1h-5.2v4.7h5.2V82.1L85.4,82.1z M85.4,91.3h-5.2v21.8h5.2V91.3L85.4,91.3
		z M138,86.5c0-0.6-0.2-1.1-0.5-1.6c-0.4-0.5-0.8-0.8-1.4-0.9c-0.6-0.1-1.2-0.1-1.7,0.1c-0.5,0.2-1,0.6-1.3,1.1l-11.9,20.7
		l-11.9-20.7c-0.1-0.3-0.3-0.5-0.5-0.7c-0.2-0.2-0.5-0.3-0.7-0.4c-0.3-0.1-0.5-0.2-0.8-0.2c-0.3,0-0.6,0-0.8,0.1
		c-0.6,0.2-1,0.5-1.4,0.9c-0.4,0.5-0.5,1-0.5,1.6v26.6h5.2V95.9l9.3,16.3c0.2,0.4,0.5,0.7,0.9,0.9c0.4,0.2,0.8,0.3,1.3,0.3
		c0.5,0,0.9-0.1,1.3-0.3c0.4-0.2,0.7-0.5,1-0.9l9.3-16.3v17.2h5.3V86.5L138,86.5z M166.2,95.2c-0.5-0.9-1.1-1.7-1.8-2.2
		c-0.7-0.6-1.5-1-2.3-1.2c-0.8-0.3-1.6-0.4-2.3-0.4h-9.4c-1.3,0-2.4,0.2-3.4,0.7c-0.9,0.5-1.7,1.1-2.2,1.8c-0.6,0.7-1,1.5-1.2,2.3
		c-0.3,0.8-0.4,1.6-0.4,2.3v7.3c0,1.3,0.2,2.4,0.7,3.4c0.5,0.9,1.1,1.7,1.8,2.2c0.7,0.6,1.5,1,2.3,1.2c0.8,0.3,1.6,0.4,2.3,0.4h9.4
		v-5h-9.4c-0.6,0-1.2-0.2-1.6-0.6c-0.4-0.4-0.7-0.9-0.7-1.6v-7.3c0-0.6,0.2-1.2,0.6-1.6c0.4-0.4,0.9-0.7,1.7-0.7h9.4
		c0.6,0,1.1,0.2,1.6,0.6c0.4,0.4,0.7,0.9,0.7,1.6c0,0.6-0.2,1.2-0.6,1.6c-0.4,0.4-0.9,0.7-1.7,0.7h-9.4v5h9.4c1.3,0,2.4-0.2,3.4-0.7
		c0.9-0.5,1.7-1.1,2.2-1.8c0.6-0.7,1-1.5,1.2-2.3c0.3-0.8,0.4-1.6,0.4-2.3C166.9,97.2,166.7,96.1,166.2,95.2L166.2,95.2z
		 M194.3,82.1h-5.2v23.6c0,0.7-0.2,1.2-0.5,1.6c-0.3,0.4-0.9,0.5-1.6,0.5h-9.4c-0.7,0-1.2-0.2-1.6-0.5c-0.4-0.4-0.5-0.9-0.5-1.6v-7
		c0-0.7,0.2-1.2,0.5-1.6c0.4-0.4,0.9-0.5,1.6-0.5h9.4v-5.2h-9.4c-0.7,0-1.5,0.1-2.4,0.4c-0.9,0.3-1.7,0.7-2.4,1.3
		c-0.7,0.6-1.3,1.3-1.8,2.3c-0.5,0.9-0.7,2.1-0.7,3.4v7.1c0,0.5,0.1,1,0.2,1.6c0.1,0.6,0.3,1.1,0.5,1.7c0.2,0.5,0.6,1.1,0.9,1.6
		c0.4,0.5,0.8,0.9,1.4,1.3c0.5,0.4,1.2,0.7,1.9,0.9c0.7,0.2,1.5,0.3,2.4,0.3h9.4c0.5,0,1-0.1,1.6-0.2c0.6-0.1,1.1-0.3,1.7-0.5
		c0.5-0.2,1.1-0.6,1.6-0.9c0.5-0.4,0.9-0.8,1.3-1.4c0.4-0.5,0.7-1.2,0.9-1.9c0.2-0.7,0.3-1.5,0.3-2.4V82.1L194.3,82.1z M218.5,84.2
		h-5.2v28.9h5.2V84.2L218.5,84.2z M261.9,96h-16.5v5.3h16.5V96L261.9,96z M264.3,84.2h-23.6c-0.4,0-0.7,0.1-1,0.2
		c-0.3,0.1-0.6,0.3-0.8,0.6c-0.2,0.2-0.4,0.5-0.6,0.8c-0.1,0.3-0.2,0.7-0.2,1v26.2h5.2V89.5h21V84.2L264.3,84.2z"/>
	<path d="M286.1,91.3h-11.8c-0.5,0-1,0.1-1.6,0.2c-0.6,0.1-1.1,0.3-1.7,0.5c-0.5,0.2-1.1,0.6-1.6,0.9c-0.5,0.4-0.9,0.8-1.3,1.4
		c-0.4,0.5-0.7,1.2-0.9,1.9c-0.2,0.7-0.3,1.5-0.3,2.4v14.4h5.2V98.7c0-0.7,0.2-1.2,0.5-1.6c0.4-0.4,0.9-0.5,1.6-0.5h11.8V91.3
		L286.1,91.3z M312.2,95.2c-0.5-0.9-1.1-1.7-1.8-2.2c-0.7-0.6-1.5-1-2.3-1.2c-0.8-0.3-1.6-0.4-2.3-0.4h-9.4c-1.3,0-2.4,0.2-3.4,0.7
		c-0.9,0.5-1.7,1.1-2.2,1.8c-0.6,0.7-1,1.5-1.2,2.3c-0.3,0.8-0.4,1.6-0.4,2.3v7.3c0,1.3,0.2,2.4,0.7,3.4c0.5,0.9,1.1,1.7,1.8,2.2
		c0.7,0.6,1.5,1,2.3,1.2c0.8,0.3,1.6,0.4,2.3,0.4h9.4v-5h-9.4c-0.6,0-1.2-0.2-1.6-0.6c-0.4-0.4-0.7-0.9-0.7-1.6v-7.3
		c0-0.6,0.2-1.2,0.6-1.6c0.4-0.4,0.9-0.7,1.7-0.7h9.4c0.6,0,1.1,0.2,1.6,0.6c0.4,0.4,0.7,0.9,0.7,1.6c0,0.6-0.2,1.2-0.6,1.6
		c-0.4,0.4-0.9,0.7-1.7,0.7h-9.4v5h9.4c1.3,0,2.4-0.2,3.4-0.7c0.9-0.5,1.7-1.1,2.2-1.8c0.6-0.7,1-1.5,1.2-2.3
		c0.3-0.8,0.4-1.6,0.4-2.3C312.9,97.2,312.7,96.1,312.2,95.2L312.2,95.2z M335.8,98.7c0-0.8-0.1-1.4-0.3-2.1h4.7
		c0.7,0,1.2,0.2,1.6,0.5c0.3,0.4,0.5,0.9,0.5,1.6v14.4h5.2V98.7c0-0.9-0.1-1.7-0.3-2.4c-0.2-0.7-0.5-1.3-0.9-1.9
		c-0.4-0.5-0.8-1-1.3-1.4c-0.5-0.4-1-0.7-1.6-0.9c-0.5-0.2-1.1-0.4-1.6-0.5c-0.6-0.1-1.1-0.2-1.6-0.2h-7.1V93
		c-0.8-0.6-1.5-1-2.4-1.2c-0.8-0.3-1.6-0.4-2.3-0.4H319c-0.4,0-0.7,0.1-1,0.2c-0.3,0.1-0.6,0.3-0.8,0.6c-0.2,0.2-0.4,0.5-0.6,0.8
		c-0.1,0.3-0.2,0.7-0.2,1v19.2h5.2V96.6h6.8c0.7,0,1.2,0.2,1.6,0.5c0.4,0.4,0.5,0.9,0.5,1.6v14.4h5.2V98.7L335.8,98.7z M372.1,91.3
		H363v-7.1h-5.3v7.1h-6.8v5.2h6.8v16.5h5.3V96.6h9.1V91.3L372.1,91.3z M380.8,82.1h-5.2v4.7h5.2V82.1L380.8,82.1z M380.8,91.3h-5.2
		v21.8h5.2V91.3L380.8,91.3z M409.7,82.1h-5.2v23.6c0,0.7-0.2,1.2-0.5,1.6c-0.3,0.4-0.9,0.5-1.6,0.5h-9.4c-0.7,0-1.2-0.2-1.6-0.5
		c-0.4-0.4-0.5-0.9-0.5-1.6v-7c0-0.7,0.2-1.2,0.5-1.6c0.4-0.4,0.9-0.5,1.6-0.5h9.4v-5.2h-9.4c-0.7,0-1.5,0.1-2.4,0.4
		c-0.9,0.3-1.7,0.7-2.4,1.3c-0.7,0.6-1.3,1.3-1.8,2.3c-0.5,0.9-0.7,2.1-0.7,3.4v7.1c0,0.5,0.1,1,0.2,1.6c0.1,0.6,0.3,1.1,0.5,1.7
		c0.2,0.5,0.6,1.1,0.9,1.6c0.4,0.5,0.8,0.9,1.4,1.3c0.5,0.4,1.2,0.7,1.9,0.9c0.7,0.2,1.5,0.3,2.4,0.3h9.4c0.5,0,1-0.1,1.6-0.2
		c0.6-0.1,1.1-0.3,1.7-0.5c0.5-0.2,1.1-0.6,1.6-0.9c0.5-0.4,0.9-0.8,1.3-1.4c0.4-0.5,0.7-1.2,0.9-1.9c0.2-0.7,0.3-1.5,0.3-2.4V82.1
		L409.7,82.1z M437.3,95.2c-0.5-0.9-1.1-1.7-1.8-2.2c-0.7-0.6-1.5-1-2.3-1.2c-0.8-0.3-1.6-0.4-2.3-0.4h-9.4c-1.3,0-2.4,0.2-3.4,0.7
		c-0.9,0.5-1.7,1.1-2.2,1.8c-0.6,0.7-1,1.5-1.2,2.3c-0.3,0.8-0.4,1.6-0.4,2.3v7.3c0,1.3,0.2,2.4,0.7,3.4c0.5,0.9,1.1,1.7,1.8,2.2
		c0.7,0.6,1.5,1,2.3,1.2c0.8,0.3,1.6,0.4,2.3,0.4h9.4v-5h-9.4c-0.6,0-1.2-0.2-1.6-0.6c-0.4-0.4-0.7-0.9-0.7-1.6v-7.3
		c0-0.6,0.2-1.2,0.6-1.6c0.4-0.4,0.9-0.7,1.7-0.7h9.4c0.6,0,1.1,0.2,1.6,0.6c0.4,0.4,0.7,0.9,0.7,1.6c0,0.6-0.2,1.2-0.6,1.6
		c-0.4,0.4-0.9,0.7-1.7,0.7h-9.4v5h9.4c1.3,0,2.4-0.2,3.4-0.7c0.9-0.5,1.7-1.1,2.2-1.8c0.6-0.7,1-1.5,1.2-2.3
		c0.3-0.8,0.4-1.6,0.4-2.3C438,97.2,437.8,96.1,437.3,95.2L437.3,95.2z M465.6,101c0-1.2-0.1-2.2-0.4-3.2c-0.3-0.9-0.7-1.8-1.2-2.5
		c-0.5-0.7-1.1-1.3-1.7-1.8c-0.7-0.5-1.3-0.9-2.1-1.2c-0.7-0.3-1.4-0.6-2.2-0.7c-0.7-0.1-1.4-0.2-2.1-0.2h-11.8
		c-0.4,0-0.7,0.1-1,0.2c-0.3,0.1-0.6,0.3-0.8,0.6c-0.2,0.2-0.4,0.5-0.6,0.8c-0.1,0.3-0.2,0.7-0.2,1v19.2h5.2V96.6h9.2
		c0.6,0,1.2,0.1,1.8,0.3c0.5,0.2,1,0.5,1.4,0.9c0.4,0.4,0.7,0.9,1,1.4c0.2,0.5,0.4,1.2,0.4,1.8v12.1h5.2V101L465.6,101z"/>
</g>
</svg>
