<?xml version="1.0" encoding="utf-8"?>
<!-- Generator: Adobe Illustrator 22.1.0, SVG Export Plug-In . SVG Version: 6.00 Build 0)  -->
<svg version="1.1" id="Layer_1" xmlns="http://www.w3.org/2000/svg" xmlns:xlink="http://www.w3.org/1999/xlink" x="0px" y="0px"
	 viewBox="0 0 500 200" style="enable-background:new 0 0 500 200;" xml:space="preserve">
<style type="text/css">
	.st0{fill-rule:evenodd;clip-rule:evenodd;}
	.st1{fill-rule:evenodd;clip-rule:evenodd;fill:#FFC223;}
</style>
<g>
	<path class="st0" d="M80.6,163.8c-13.4-0.3-24.6-4.9-33.4-13.8c-8.9-8.9-13.5-20.1-13.9-33.5v0c0.1-8.6,2.2-16.5,6.3-23.5
		c0.7-1.2,2.4-1.2,3.1,0l11,19.3c2.8,4.6,5.4,10.6,7.8,17.8c2.4,7,4,15.6,4.9,25.9c0.1,0.7,0.5,1.3,1.2,1.6c4.1,1.3,8.4,1.9,12.9,2
		c4.4,0,8.6-0.7,12.7-1.9c0.7-0.2,1.2-0.8,1.2-1.6c1-11.4,2.8-20.7,5.4-27.9c2.7-7.4,5.6-13.5,8.6-18.2c0,0,0-0.1,0.1-0.1l9.7-17.3
		c0.7-1.2,2.4-1.2,3.1,0c4.2,7.2,6.4,15.1,6.5,23.9v0c-0.3,13.4-4.9,24.6-13.8,33.5C105.1,158.8,94,163.4,80.6,163.8 M103.4,66.6
		c-1.7-5.8-5.8-9-12.4-9.5c-0.1,0-0.1,0-0.2,0c-0.1,0-0.3,0-0.5,0c-1,0-1.7,0.8-1.7,1.8v1.6c0,1-0.8,1.8-1.8,1.8h-4.1
		c-1,0-1.8,0.8-1.8,1.8v0c0,1,0.8,1.8,1.8,1.8h4.1c1,0,1.8,0.8,1.8,1.8v2.8c0,1-0.8,1.8-1.8,1.8h-4.1c-1,0-1.8,0.8-1.8,1.8l0,0
		c0,1,0.8,1.8,1.8,1.8h4.1c1,0,1.8,0.8,1.8,1.8v1.6c0,1,0.8,1.8,1.7,1.8c0.4,0,0.6,0,0.6,0c4.6-0.2,8.1-1.9,10.6-5.2
		c0.5-0.7,1.5-0.9,2.3-0.5c3.2,1.8,6.1,3.9,8.7,6.3c0.7,0.6,0.7,1.6,0.2,2.3l-17.4,23.9c-4.3,5.7-9.2,8.6-14.9,8.7
		c-5.6-0.1-10.6-3-14.8-8.7L48.3,84.1c-0.5-0.7-0.4-1.7,0.2-2.3c2.7-2.5,5.8-4.7,9.1-6.6c0.8-0.4,1.7-0.2,2.3,0.5
		c2.3,3.2,5.8,4.9,10.3,5.1l0.4,0c0.1,0,0.2,0,0.4,0c1,0,1.7-0.8,1.7-1.8V58.9c0-1-0.8-1.8-1.7-1.8c-0.2,0-0.4,0-0.5,0
		c-0.1,0-0.1,0-0.2,0C64,57.6,59.9,60.5,58,65.9c-0.2,0.5-0.5,0.8-0.9,1.1C47.6,71.5,40,78.2,34.4,86.8c-5.7,8.8-8.6,18.7-8.7,29.7
		c0.4,15.5,5.8,28.5,16.1,38.8c10.3,10.3,23.3,15.7,38.8,16.1c15.5-0.4,28.4-5.8,38.7-16.1c10.3-10.3,15.7-23.3,16.1-38.8
		c-0.1-11-3-20.9-8.7-29.7C121.1,77.9,113.3,71.2,103.4,66.6"/>
	<path class="st0" d="M69.3,99.8c0.1,3.2,1.2,5.9,3.3,8c2.1,2.1,4.8,3.2,8,3.3c3.2-0.1,5.9-1.2,8-3.3c2.1-2.1,3.2-4.8,3.3-8
		c-0.1-3.2-1.2-5.8-3.3-7.9c-2.1-2.1-4.8-3.2-8-3.3c-3.2,0.1-5.8,1.2-8,3.3C70.5,94,69.4,96.6,69.3,99.8"/>
	<polyline class="st1" points="116.1,27.2 94.2,40.1 98.2,42 85.7,54.5 107.6,41.7 103.6,39.7 116.1,27.2 	"/>
	<polyline class="st1" points="67.7,40.1 45.8,27.2 58.3,39.7 54.3,41.7 76.2,54.5 63.7,42 67.7,40.1 	"/>
	<path d="M193.8,129.5c0-1.7-0.2-3.3-0.6-4.8c-0.4-1.4-0.9-2.7-1.6-3.9c-0.7-1.1-1.4-2.1-2.3-3c-0.9-0.9-1.8-1.6-2.8-2.2
		c1.2-1.6,2-3.3,2.5-5.1c0.5-1.8,0.8-3.5,0.8-5.1v-1.7c0-2-0.4-3.7-1.1-5s-1.6-2.5-2.7-3.3c-1.1-0.9-2.3-1.5-3.5-1.9
		c-1.3-0.4-2.4-0.6-3.5-0.6h-29.7c-0.6,0-1.2,0.1-1.8,0.3c-0.5,0.2-1,0.5-1.4,1c-0.4,0.4-0.7,0.9-0.9,1.4c-0.2,0.5-0.3,1.1-0.3,1.7
		v40.1c0,0.6,0.1,1.2,0.3,1.8c0.2,0.5,0.5,1,0.9,1.4c0.4,0.4,0.9,0.7,1.4,0.9c0.5,0.2,1.1,0.3,1.8,0.3h33.7c2,0,3.7-0.4,5-1.1
		s2.5-1.6,3.3-2.7c0.9-1.1,1.5-2.2,1.8-3.5c0.4-1.3,0.6-2.4,0.6-3.5V129.5L193.8,129.5z M184.9,131.1c0,0.5-0.1,0.9-0.2,1.1
		s-0.3,0.5-0.5,0.6c-0.2,0.1-0.4,0.2-0.6,0.2c-0.2,0-0.4,0-0.6,0h-29.3v-31.2h25.3c1.2,0,1.8,0.6,1.8,1.9v1.7c0,1.2-0.2,2.2-0.5,3.1
		c-0.4,0.9-0.9,1.7-1.5,2.4c-0.7,0.7-1.5,1.2-2.4,1.5c-0.9,0.4-2,0.5-3.1,0.5h-16v9h20c1.2,0,2.2,0.2,3.1,0.5
		c0.9,0.4,1.7,0.9,2.4,1.5c0.7,0.7,1.2,1.5,1.5,2.4c0.4,0.9,0.5,2,0.5,3.1V131.1L184.9,131.1z M258.6,96.8c0-1-0.3-1.9-0.9-2.7
		c-0.6-0.8-1.4-1.3-2.4-1.6c-1-0.3-2-0.2-2.9,0.2c-0.9,0.4-1.6,1-2.2,1.8L230,129.6l-20.2-35.2c-0.3-0.4-0.6-0.8-0.9-1.1
		c-0.4-0.3-0.8-0.5-1.2-0.7s-0.9-0.3-1.4-0.3s-1,0-1.4,0.1c-1,0.3-1.8,0.8-2.4,1.6c-0.6,0.8-0.9,1.7-0.9,2.7V142h8.9v-29.2
		l15.8,27.7c0.4,0.7,0.9,1.2,1.6,1.6c0.7,0.4,1.4,0.5,2.2,0.5c0.8,0,1.5-0.2,2.2-0.5c0.7-0.4,1.2-0.9,1.6-1.6l15.8-27.7V142h9V96.8
		L258.6,96.8z M277.9,93H269v49h8.9V93L277.9,93z M328.8,113h-28.1v9h28.1V113L328.8,113z M332.8,93h-40c-0.6,0-1.2,0.1-1.8,0.3
		c-0.5,0.2-1,0.5-1.4,1c-0.4,0.4-0.7,0.9-0.9,1.4c-0.2,0.5-0.3,1.1-0.3,1.7V142h8.9v-40.1h35.6V93L332.8,93z M410.8,97.4
		c0-0.6-0.1-1.2-0.3-1.7c-0.2-0.5-0.5-1-1-1.4s-0.9-0.7-1.4-1c-0.5-0.2-1.1-0.3-1.7-0.3h-20c-3.5,0-6.8,0.6-9.8,1.8
		c-3,1.2-5.6,2.9-7.8,5.1c-2.2,2.2-3.9,4.8-5.1,7.8s-1.8,6.3-1.8,9.9V142h8.9v-12h31.2v12h8.9V97.4L410.8,97.4z M370.7,117.5
		c0-2.5,0.3-4.6,1-6.3c0.7-1.7,1.6-3.2,2.6-4.4c1.1-1.2,2.2-2.1,3.5-2.7c1.3-0.7,2.5-1.2,3.6-1.5c1.2-0.3,2.2-0.5,3-0.6
		c0.9-0.1,1.5-0.1,1.7-0.1h15.6v19.2h-31.2V117.5L370.7,117.5z"/>
	<path d="M467.2,122.8c-0.4-1.4-1-2.6-1.8-3.7c-0.7-1.1-1.6-2-2.5-2.8c-1-0.8-2-1.4-3-1.9c-1.1-0.5-2.1-0.9-3.2-1.1
		c-1.1-0.2-2.1-0.4-3-0.4h-0.1h-20.4c-1.7,0-3-0.5-3.9-1.5c-0.9-1-1.4-2.3-1.4-4.1c0-1.7,0.5-3,1.4-4.1c0.9-1,2.3-1.5,3.9-1.5h30.2
		V93h-30.2c-1.4,0-3,0.3-4.6,0.8c-1.7,0.5-3.2,1.3-4.6,2.5c-1.4,1.2-2.6,2.6-3.6,4.5c-0.9,1.8-1.4,4.1-1.4,6.8s0.5,4.9,1.4,6.8
		c0.9,1.8,2.1,3.3,3.6,4.5c1.4,1.1,3,2,4.6,2.5c1.7,0.5,3.2,0.8,4.6,0.8h20.4c0.8,0,1.6,0.1,2.2,0.4c0.7,0.3,1.2,0.7,1.7,1.2
		c0.5,0.5,0.8,1.1,1.1,1.8c0.3,0.7,0.4,1.4,0.4,2.3c0,1.7-0.5,3-1.4,4c-0.9,1-2.3,1.5-4,1.5h-34.3v8.9h34.3c1,0,2-0.1,3.1-0.3
		c1.1-0.2,2.1-0.6,3.2-1.1c1-0.5,2.1-1.1,3-1.8c1-0.8,1.8-1.7,2.6-2.7c0.7-1.1,1.3-2.3,1.8-3.7s0.7-3,0.7-4.7
		C467.8,125.8,467.6,124.2,467.2,122.8L467.2,122.8z"/>
	<path d="M162.3,170.6c0-0.5-0.1-1-0.2-1.5c-0.1-0.5-0.3-0.9-0.5-1.2c-0.2-0.4-0.4-0.7-0.7-0.9c-0.3-0.3-0.6-0.5-0.9-0.7
		c0.4-0.5,0.6-1,0.8-1.6c0.2-0.6,0.2-1.1,0.2-1.6v-0.5c0-0.6-0.1-1.1-0.3-1.6s-0.5-0.8-0.8-1c-0.3-0.3-0.7-0.5-1.1-0.6
		c-0.4-0.1-0.8-0.2-1.1-0.2h-9.3c-0.2,0-0.4,0-0.6,0.1c-0.2,0.1-0.3,0.2-0.4,0.3c-0.1,0.1-0.2,0.3-0.3,0.5c-0.1,0.2-0.1,0.4-0.1,0.5
		v12.6c0,0.2,0,0.4,0.1,0.6c0.1,0.2,0.2,0.3,0.3,0.4c0.1,0.1,0.3,0.2,0.4,0.3c0.2,0.1,0.4,0.1,0.6,0.1h10.6c0.6,0,1.1-0.1,1.6-0.3
		s0.8-0.5,1-0.8c0.3-0.3,0.5-0.7,0.6-1.1c0.1-0.4,0.2-0.8,0.2-1.1V170.6L162.3,170.6z M159.5,171.1c0,0.2,0,0.3-0.1,0.4
		s-0.1,0.1-0.2,0.2c-0.1,0-0.1,0.1-0.2,0.1c-0.1,0-0.1,0-0.2,0h-9.2v-9.8h8c0.4,0,0.6,0.2,0.6,0.6v0.5c0,0.4-0.1,0.7-0.2,1
		c-0.1,0.3-0.3,0.5-0.5,0.7c-0.2,0.2-0.5,0.4-0.8,0.5c-0.3,0.1-0.6,0.2-1,0.2h-5v2.8h6.3c0.4,0,0.7,0.1,1,0.2
		c0.3,0.1,0.5,0.3,0.8,0.5c0.2,0.2,0.4,0.5,0.5,0.7c0.1,0.3,0.2,0.6,0.2,1V171.1L159.5,171.1z M169.5,171.7h-1.2
		c-0.3,0-0.6-0.1-0.8-0.3s-0.3-0.5-0.3-0.8V158h-2.8v12.6c0,0.7,0.1,1.3,0.4,1.8c0.3,0.5,0.6,0.9,1,1.2c0.4,0.3,0.8,0.5,1.3,0.7
		c0.5,0.1,0.9,0.2,1.3,0.2h1.2V171.7L169.5,171.7z M174.2,158h-2.8v2.5h2.8V158L174.2,158z M174.2,162.9h-2.8v11.6h2.8V162.9
		L174.2,162.9z M202.2,160.3c0-0.3-0.1-0.6-0.3-0.9c-0.2-0.3-0.4-0.4-0.7-0.5c-0.3-0.1-0.6-0.1-0.9,0.1c-0.3,0.1-0.5,0.3-0.7,0.6
		l-6.4,11.1l-6.4-11.1c-0.1-0.1-0.2-0.3-0.3-0.3c-0.1-0.1-0.2-0.2-0.4-0.2s-0.3-0.1-0.4-0.1s-0.3,0-0.5,0c-0.3,0.1-0.6,0.3-0.7,0.5
		c-0.2,0.3-0.3,0.5-0.3,0.9v14.2h2.8v-9.2l5,8.7c0.1,0.2,0.3,0.4,0.5,0.5c0.2,0.1,0.4,0.2,0.7,0.2c0.3,0,0.5-0.1,0.7-0.2
		c0.2-0.1,0.4-0.3,0.5-0.5l5-8.7v9.2h2.8V160.3L202.2,160.3z M217.3,165c-0.3-0.5-0.6-0.9-1-1.2c-0.4-0.3-0.8-0.5-1.2-0.7
		c-0.4-0.1-0.9-0.2-1.3-0.2h-5c-0.7,0-1.3,0.1-1.8,0.4c-0.5,0.3-0.9,0.6-1.2,1c-0.3,0.4-0.5,0.8-0.7,1.2c-0.1,0.4-0.2,0.9-0.2,1.3
		v3.9c0,0.7,0.1,1.3,0.4,1.8c0.3,0.5,0.6,0.9,1,1.2c0.4,0.3,0.8,0.5,1.2,0.7c0.4,0.1,0.9,0.2,1.3,0.2h5v-2.7h-5
		c-0.3,0-0.6-0.1-0.9-0.3c-0.2-0.2-0.3-0.5-0.3-0.9v-3.9c0-0.3,0.1-0.6,0.3-0.9c0.2-0.2,0.5-0.3,0.9-0.3h5c0.3,0,0.6,0.1,0.8,0.3
		c0.2,0.2,0.3,0.5,0.3,0.9c0,0.3-0.1,0.6-0.3,0.9c-0.2,0.2-0.5,0.3-0.9,0.3h-5v2.7h5c0.7,0,1.3-0.1,1.8-0.4c0.5-0.3,0.9-0.6,1.2-1
		c0.3-0.4,0.5-0.8,0.7-1.2c0.1-0.4,0.2-0.9,0.2-1.3C217.7,166.1,217.5,165.5,217.3,165L217.3,165z M232.3,158h-2.8v12.6
		c0,0.4-0.1,0.6-0.3,0.8c-0.2,0.2-0.5,0.3-0.8,0.3h-5c-0.4,0-0.6-0.1-0.8-0.3c-0.2-0.2-0.3-0.5-0.3-0.9v-3.8c0-0.4,0.1-0.6,0.3-0.8
		c0.2-0.2,0.5-0.3,0.8-0.3h5v-2.8h-5c-0.4,0-0.8,0.1-1.3,0.2c-0.5,0.1-0.9,0.4-1.3,0.7c-0.4,0.3-0.7,0.7-1,1.2
		c-0.3,0.5-0.4,1.1-0.4,1.8v3.8c0,0.3,0,0.5,0.1,0.8c0.1,0.3,0.2,0.6,0.3,0.9s0.3,0.6,0.5,0.8c0.2,0.3,0.5,0.5,0.7,0.7
		s0.6,0.4,1,0.5c0.4,0.1,0.8,0.2,1.3,0.2h5c0.3,0,0.5,0,0.8-0.1c0.3-0.1,0.6-0.2,0.9-0.3s0.6-0.3,0.8-0.5c0.3-0.2,0.5-0.5,0.7-0.7
		c0.2-0.3,0.4-0.6,0.5-1c0.1-0.4,0.2-0.8,0.2-1.3V158L232.3,158z M245.2,159.1h-2.8v15.4h2.8V159.1L245.2,159.1z M268.4,165.4h-8.8
		v2.8h8.8V165.4L268.4,165.4z M269.6,159.1h-12.6c-0.2,0-0.4,0-0.6,0.1c-0.2,0.1-0.3,0.2-0.4,0.3c-0.1,0.1-0.2,0.3-0.3,0.5
		c-0.1,0.2-0.1,0.4-0.1,0.5v14h2.8v-12.6h11.2V159.1L269.6,159.1z"/>
	<path d="M281.3,162.9H275c-0.3,0-0.5,0-0.8,0.1c-0.3,0.1-0.6,0.2-0.9,0.3s-0.6,0.3-0.8,0.5c-0.3,0.2-0.5,0.5-0.7,0.7
		s-0.4,0.6-0.5,1c-0.1,0.4-0.2,0.8-0.2,1.3v7.7h2.8v-7.7c0-0.4,0.1-0.6,0.3-0.8c0.2-0.2,0.5-0.3,0.9-0.3h6.3V162.9L281.3,162.9z
		 M295.2,165c-0.3-0.5-0.6-0.9-1-1.2c-0.4-0.3-0.8-0.5-1.2-0.7c-0.4-0.1-0.9-0.2-1.3-0.2h-5c-0.7,0-1.3,0.1-1.8,0.4
		c-0.5,0.3-0.9,0.6-1.2,1c-0.3,0.4-0.5,0.8-0.7,1.2c-0.1,0.4-0.2,0.9-0.2,1.3v3.9c0,0.7,0.1,1.3,0.4,1.8c0.3,0.5,0.6,0.9,1,1.2
		c0.4,0.3,0.8,0.5,1.2,0.7c0.4,0.1,0.9,0.2,1.3,0.2h5v-2.7h-5c-0.3,0-0.6-0.1-0.9-0.3c-0.2-0.2-0.3-0.5-0.3-0.9v-3.9
		c0-0.3,0.1-0.6,0.3-0.9c0.2-0.2,0.5-0.3,0.9-0.3h5c0.3,0,0.6,0.1,0.8,0.3c0.2,0.2,0.3,0.5,0.3,0.9c0,0.3-0.1,0.6-0.3,0.9
		c-0.2,0.2-0.5,0.3-0.9,0.3h-5v2.7h5c0.7,0,1.3-0.1,1.8-0.4c0.5-0.3,0.9-0.6,1.2-1c0.3-0.4,0.5-0.8,0.7-1.2c0.1-0.4,0.2-0.9,0.2-1.3
		C295.6,166.1,295.5,165.5,295.2,165L295.2,165z M307.8,166.8c0-0.4,0-0.8-0.1-1.1h2.5c0.4,0,0.7,0.1,0.8,0.3
		c0.2,0.2,0.3,0.5,0.3,0.8v7.7h2.8v-7.7c0-0.5-0.1-0.9-0.2-1.3c-0.1-0.4-0.3-0.7-0.5-1c-0.2-0.3-0.4-0.5-0.7-0.7
		c-0.3-0.2-0.5-0.4-0.8-0.5s-0.6-0.2-0.9-0.3c-0.3-0.1-0.6-0.1-0.8-0.1h-3.8v0.9c-0.4-0.3-0.8-0.5-1.3-0.7c-0.4-0.1-0.9-0.2-1.2-0.2
		h-5c-0.2,0-0.4,0-0.5,0.1c-0.2,0.1-0.3,0.2-0.5,0.3c-0.1,0.1-0.2,0.3-0.3,0.4c-0.1,0.2-0.1,0.3-0.1,0.5v10.2h2.8v-8.8h3.6
		c0.4,0,0.7,0.1,0.9,0.3c0.2,0.2,0.3,0.5,0.3,0.8v7.7h2.8V166.8L307.8,166.8z M327.2,162.9h-4.9v-3.8h-2.8v3.8h-3.6v2.8h3.6v8.8h2.8
		v-8.8h4.9V162.9L327.2,162.9z M331.9,158h-2.8v2.5h2.8V158L331.9,158z M331.9,162.9h-2.8v11.6h2.8V162.9L331.9,162.9z M347.3,158
		h-2.8v12.6c0,0.4-0.1,0.6-0.3,0.8c-0.2,0.2-0.5,0.3-0.8,0.3h-5c-0.4,0-0.6-0.1-0.8-0.3c-0.2-0.2-0.3-0.5-0.3-0.9v-3.8
		c0-0.4,0.1-0.6,0.3-0.8c0.2-0.2,0.5-0.3,0.8-0.3h5v-2.8h-5c-0.4,0-0.8,0.1-1.3,0.2c-0.5,0.1-0.9,0.4-1.3,0.7
		c-0.4,0.3-0.7,0.7-1,1.2c-0.3,0.5-0.4,1.1-0.4,1.8v3.8c0,0.3,0,0.5,0.1,0.8c0.1,0.3,0.2,0.6,0.3,0.9s0.3,0.6,0.5,0.8
		c0.2,0.3,0.5,0.5,0.7,0.7s0.6,0.4,1,0.5c0.4,0.1,0.8,0.2,1.3,0.2h5c0.3,0,0.5,0,0.8-0.1c0.3-0.1,0.6-0.2,0.9-0.3s0.6-0.3,0.8-0.5
		c0.3-0.2,0.5-0.5,0.7-0.7c0.2-0.3,0.4-0.6,0.5-1c0.1-0.4,0.2-0.8,0.2-1.3V158L347.3,158z M362,165c-0.3-0.5-0.6-0.9-1-1.2
		c-0.4-0.3-0.8-0.5-1.2-0.7c-0.4-0.1-0.9-0.2-1.3-0.2h-5c-0.7,0-1.3,0.1-1.8,0.4c-0.5,0.3-0.9,0.6-1.2,1c-0.3,0.4-0.5,0.8-0.7,1.2
		c-0.1,0.4-0.2,0.9-0.2,1.3v3.9c0,0.7,0.1,1.3,0.4,1.8c0.3,0.5,0.6,0.9,1,1.2c0.4,0.3,0.8,0.5,1.2,0.7c0.4,0.1,0.9,0.2,1.3,0.2h5
		v-2.7h-5c-0.3,0-0.6-0.1-0.9-0.3c-0.2-0.2-0.3-0.5-0.3-0.9v-3.9c0-0.3,0.1-0.6,0.3-0.9c0.2-0.2,0.5-0.3,0.9-0.3h5
		c0.3,0,0.6,0.1,0.8,0.3c0.2,0.2,0.3,0.5,0.3,0.9c0,0.3-0.1,0.6-0.3,0.9c-0.2,0.2-0.5,0.3-0.9,0.3h-5v2.7h5c0.7,0,1.3-0.1,1.8-0.4
		c0.5-0.3,0.9-0.6,1.2-1c0.3-0.4,0.5-0.8,0.7-1.2c0.1-0.4,0.2-0.9,0.2-1.3C362.4,166.1,362.3,165.5,362,165L362,165z M377.1,168.1
		c0-0.6-0.1-1.2-0.2-1.7c-0.2-0.5-0.4-0.9-0.6-1.3c-0.3-0.4-0.6-0.7-0.9-1c-0.3-0.3-0.7-0.5-1.1-0.7c-0.4-0.2-0.8-0.3-1.2-0.4
		c-0.4-0.1-0.8-0.1-1.1-0.1h-6.3c-0.2,0-0.4,0-0.5,0.1c-0.2,0.1-0.3,0.2-0.5,0.3c-0.1,0.1-0.2,0.3-0.3,0.4c-0.1,0.2-0.1,0.3-0.1,0.5
		v10.2h2.8v-8.8h4.9c0.3,0,0.6,0.1,0.9,0.2c0.3,0.1,0.5,0.3,0.8,0.5c0.2,0.2,0.4,0.5,0.5,0.7c0.1,0.3,0.2,0.6,0.2,1v6.4h2.8V168.1
		L377.1,168.1z"/>
</g>
</svg>
