<?xml version="1.0" ?><svg viewBox="0 0 141.42 141.42" xmlns="http://www.w3.org/2000/svg"><defs><style>.cls-1{isolation:isolate;}.cls-2{fill:#a35bb5;}.cls-3{opacity:0.29;mix-blend-mode:overlay;}.cls-4{fill:#fff;}</style></defs><title/><g class="cls-1"><g data-name="Layer 2" id="Layer_2"><g data-name="Layer 25" id="Layer_25"><rect class="cls-2" height="141.42" rx="10" ry="10" width="141.42"/><g class="cls-3" data-name="Layer 26" id="Layer_26"><path d="M97.75,44.75l-11-2.37-16.4-3-20.6,8.33L39.71,68l5.4,27.8,45.58,45.58h40.73a10,10,0,0,0,10-10v-43Z"/></g><path class="cls-4" d="M101.93,94.56a33.59,33.59,0,0,1-13.45,8.74,48.58,48.58,0,0,1-16.43,2.77,41.29,41.29,0,0,1-15-2.62,33.78,33.78,0,0,1-11.57-7.28A32.39,32.39,0,0,1,38,85a37.23,37.23,0,0,1-2.63-14.2,34.13,34.13,0,0,1,2.88-14.06A35.28,35.28,0,0,1,46.12,45.5,36.71,36.71,0,0,1,57.8,38a37.75,37.75,0,0,1,14.25-2.68,42.84,42.84,0,0,1,12.68,1.89A32.69,32.69,0,0,1,95.63,43a27.8,27.8,0,0,1,7.59,9.5,29.63,29.63,0,0,1,2.85,13.4,29.33,29.33,0,0,1-1.58,10.07,22,22,0,0,1-4.23,7.32,17.09,17.09,0,0,1-6.05,4.42,17.84,17.84,0,0,1-7.15,1.47,9.76,9.76,0,0,1-6.15-1.8,5.59,5.59,0,0,1-2.31-4.56h-.47a15.33,15.33,0,0,1-4.42,4.32,12.64,12.64,0,0,1-7.31,2.06c-4.35,0-7.72-1.42-10.08-4.28s-3.56-6.55-3.56-11.13a23.93,23.93,0,0,1,1.35-7.89,22.49,22.49,0,0,1,3.83-6.95,19.64,19.64,0,0,1,6-4.89,16.07,16.07,0,0,1,7.69-1.85,11.68,11.68,0,0,1,6.15,1.52A7.3,7.3,0,0,1,81,57.39h.1l.77-3.8h8.55l-3.77,18c-.12.89-.3,1.87-.52,3a15.26,15.26,0,0,0-.33,3,5.47,5.47,0,0,0,.63,2.72,2.58,2.58,0,0,0,2.45,1.08c2.49,0,4.56-1.32,6.2-4s2.45-6.23,2.45-10.73A25.13,25.13,0,0,0,95.6,56.52a20.82,20.82,0,0,0-5.33-7.42,22.88,22.88,0,0,0-8.12-4.51,33.36,33.36,0,0,0-10.27-1.52,28.23,28.23,0,0,0-11.1,2.13,25.38,25.38,0,0,0-8.6,5.89,26.77,26.77,0,0,0-5.52,8.84,29.7,29.7,0,0,0-2,11,29.61,29.61,0,0,0,2.07,11.32,24.56,24.56,0,0,0,5.8,8.6,25.39,25.39,0,0,0,8.94,5.46A33.13,33.13,0,0,0,72.9,98.17,33,33,0,0,0,86.3,95.7a37,37,0,0,0,10.33-6.85ZM71.86,60a6.49,6.49,0,0,0-4,1.32,11.62,11.62,0,0,0-2.93,3.38,16.94,16.94,0,0,0-1.83,4.52A19.68,19.68,0,0,0,62.42,74a13.49,13.49,0,0,0,.24,2.43,6.39,6.39,0,0,0,1,2.38,5.43,5.43,0,0,0,5,2.51A7.51,7.51,0,0,0,73,80a10.25,10.25,0,0,0,3-3.23,14.87,14.87,0,0,0,1.69-4.23,18.78,18.78,0,0,0,.52-4.19,16,16,0,0,0-.28-3,8,8,0,0,0-1-2.66,5.64,5.64,0,0,0-5-2.7Z"/></g></g></g></svg>