<?xml version="1.0" ?><svg viewBox="0 0 141.42 141.42" xmlns="http://www.w3.org/2000/svg"><defs><style>.cls-1{isolation:isolate;}.cls-2{fill:#0077b5;}.cls-3{opacity:0.3;mix-blend-mode:overlay;}.cls-4{fill:#fff;}</style></defs><title/><g class="cls-1"><g data-name="Layer 2" id="Layer_2"><g data-name="Layer 9" id="Layer_9"><rect class="cls-2" height="141.42" rx="10" ry="10" width="141.42"/><g class="cls-3" data-name="Layer 24" id="Layer_24"><path d="M141.42,131.42v-28.6L99.5,60.9l-5.66,2.81L81.61,66.09,74.38,59l-2.66.93L50.37,38.54l-5-1.7-4,2.93L38.49,50.43l10.8,10.79L40,74.71l-3.15,31,35.73,35.73h58.88A10,10,0,0,0,141.42,131.42Z"/></g><g data-name="&lt;Group&gt;" id="_Group_"><path class="cls-4" d="M36.81,59H51.34v46.73H36.81ZM44.1,35.73a8.43,8.43,0,1,1-8.42,8.43,8.44,8.44,0,0,1,8.42-8.43" data-name="&lt;Compound Path&gt;" id="_Compound_Path_"/><path class="cls-4" d="M60.47,59H74.38v6.4h.19c2-3.67,6.68-7.53,13.75-7.53,14.7,0,17.43,9.67,17.43,22.25v25.61H91.24V83c0-5.43-.08-12.39-7.54-12.39S75,76.49,75,82.57v23.12H60.5V59Z" data-name="&lt;Path&gt;" id="_Path_"/></g></g></g></g></svg>