<?xml version="1.0" ?><svg viewBox="0 0 141.42 141.42" xmlns="http://www.w3.org/2000/svg"><defs><style>.cls-1{isolation:isolate;}.cls-2{fill:#1da1f2;}.cls-3{opacity:0.3;mix-blend-mode:overlay;}.cls-4{fill:#fff;}</style></defs><title/><g class="cls-1"><g data-name="Layer 2" id="Layer_2"><g data-name="Layer 15" id="Layer_15"><rect class="cls-2" height="141.42" rx="10" ry="10" width="141.42"/><g class="cls-3" data-name="Layer 19" id="Layer_19"><path d="M110.86,37.45,102,44,87.15,38l-9.69,6.25-2.5,18-17.74.24L38.38,47.38l-3.67-1.67,1.08,5.75,9.92,11.17-9.5,3.87,16.42,10L63.46,89.79l-20.5,11L28.2,97.38l44.05,44h59.17a10,10,0,0,0,10-10V68Z"/></g><g data-name="Layer 18" id="Layer_18"><path class="cls-4" d="M113.21,44.35a34.34,34.34,0,0,1-10,2.74,17.41,17.41,0,0,0,7.67-9.64,34.83,34.83,0,0,1-11.07,4.23A17.45,17.45,0,0,0,69.62,53.61a18,18,0,0,0,.45,4A49.49,49.49,0,0,1,34.13,39.36a17.47,17.47,0,0,0,5.4,23.29,17.43,17.43,0,0,1-7.9-2.18v.22a17.44,17.44,0,0,0,14,17.09,17.49,17.49,0,0,1-4.6.62,16.89,16.89,0,0,1-3.28-.32A17.45,17.45,0,0,0,54,90.19a35,35,0,0,1-21.66,7.47,33.67,33.67,0,0,1-4.16-.25,49.37,49.37,0,0,0,26.73,7.84c32.08,0,49.62-26.57,49.62-49.62,0-.75,0-1.51,0-2.26A35.2,35.2,0,0,0,113.21,44.35Z"/></g></g></g></g></svg>