<svg xmlns="http://www.w3.org/2000/svg" viewBox="0 0 480 290" width="480pt" height="290pt" xmlns:xlink="http://www.w3.org/1999/xlink" version="1.1">
  <g id="surface2" transform="matrix(1 0 0 1 -165 2)">
    <path style="stroke:none;fill-rule:evenodd;fill:rgb(0.000000%,0.000000%,0.000000%);fill-opacity:1" d="M 237.949 157.949 C 224.551 157.617 213.398 153 204.5 144.102 C 195.602 135.199 190.984 124.051 190.648 110.648 C 190.648 110.648 190.648 110.633 190.648 110.602 C 190.785 100.898 193.418 92.1992 198.551 84.5 L 211.051 106.352 C 213.852 110.984 216.465 116.934 218.898 124.199 C 221.367 131.465 223.035 140.5 223.898 151.301 C 228.332 152.832 233.016 153.617 237.949 153.648 C 242.785 153.617 247.383 152.852 251.75 151.352 C 252.715 139.449 254.551 129.75 257.25 122.25 C 259.949 114.785 262.832 108.715 265.898 104.051 L 277.102 84.1484 C 282.367 91.9492 285.066 100.766 285.199 110.602 C 285.199 110.633 285.199 110.648 285.199 110.648 C 284.867 124.051 280.25 135.199 271.352 144.102 C 262.449 153 251.316 157.617 237.949 157.949 M 260.699 60.75 C 259.035 54.8828 254.852 51.7148 248.148 51.25 C 248.117 51.25 247.332 51.2656 245.801 51.3008 L 245.801 56.4492 L 238.199 56.4492 L 238.199 60 L 245.801 60 L 245.801 66.3008 L 238.199 66.3008 L 238.199 69.8516 L 245.801 69.8516 L 245.801 75 C 247.332 75.0352 248.117 75.0508 248.148 75.0508 C 253.352 74.8164 257.148 72.668 259.551 68.6016 C 263.75 70.7656 267.516 73.4648 270.852 76.6992 L 252.5 101.852 C 248.234 107.551 243.285 110.449 237.648 110.551 C 232.016 110.449 227.066 107.551 222.801 101.852 L 204.699 77.0508 C 208.102 73.6836 211.984 70.8672 216.352 68.6016 C 218.715 72.668 222.516 74.8164 227.75 75.0508 C 227.75 75.0156 228.516 75 230.051 75 L 230.051 51.3008 C 228.516 51.2656 227.75 51.25 227.75 51.25 C 221.051 51.7148 216.852 54.8828 215.148 60.75 C 205.25 65.3828 197.449 72.1172 191.75 80.9492 C 186.051 89.7852 183.148 99.6836 183.051 110.648 C 183.449 126.184 188.816 139.117 199.148 149.449 C 209.484 159.785 222.418 165.148 237.949 165.551 C 253.484 165.148 266.398 159.785 276.699 149.449 C 287.035 139.117 292.398 126.184 292.801 110.648 C 292.699 99.6836 289.801 89.7852 284.102 80.9492 C 278.398 72.1172 270.602 65.3828 260.699 60.75" />
    <path style="stroke:none;fill-rule:evenodd;fill:rgb(0.000000%,0.000000%,0.000000%);fill-opacity:1" d="M 226.648 93.9492 C 226.715 97.1484 227.816 99.8164 229.949 101.949 C 232.082 104.082 234.734 105.184 237.898 105.25 C 241.102 105.184 243.766 104.082 245.898 101.949 C 248.035 99.8164 249.133 97.1484 249.199 93.9492 C 249.133 90.7852 248.035 88.1328 245.898 86 C 243.766 83.8672 241.102 82.7656 237.898 82.6992 C 234.734 82.7656 232.082 83.8672 229.949 86 C 227.816 88.1328 226.715 90.7852 226.648 93.9492" />
    <path style="stroke:none;fill-rule:evenodd;fill:rgb(100.000000%,76.862745%,14.509804%);fill-opacity:1" d="M 273.398 21.3984 L 251.5 34.25 L 255.5 36.1484 L 243 48.6484 L 264.898 35.8516 L 260.898 33.8984 L 273.398 21.3984" />
    <path style="stroke:none;fill-rule:evenodd;fill:rgb(100.000000%,76.862745%,14.509804%);fill-opacity:1" d="M 225 34.25 L 203.102 21.3984 L 215.602 33.8984 L 211.602 35.8516 L 233.5 48.6484 L 221 36.1484 L 225 34.25" />
  </g>
  <g id="surface4">
    <text font-family="Audiowide" font-size="70px" style="fill:rgb(0,0,0)" transform="matrix(1 0 0 1 141.089 120.15)" xml:space="preserve">BMIF AS</text>
    <text font-family="Audiowide" font-size="31px" style="fill:rgb(0,0,0)" transform="matrix(1 0 0 1 141.662 157.7)" xml:space="preserve">Bli Med I Framtiden</text>
    <text font-family="Audiowide" font-size="17px" style="fill:rgb(0,0,0)" transform="matrix(1.34799 0 0 1.34799 37.3968 278.516)" xml:space="preserve">www.bmif.no   www.opplading.no</text>
  </g>
</svg>